<svg width="24" height="24" viewBox="0 0 24 24" fill="none" xmlns="http://www.w3.org/2000/svg"> <path d="M1.95603 5.4489C1.84279 5.19704 1.54682 5.08467 1.29497 5.1979C1.04311 5.31114 0.930736 5.60711 1.04397 5.85896L1.95603 5.4489ZM8.0625 20.2501L7.60647 20.4551C7.68914 20.639 7.87413 20.7552 8.07565 20.7499C8.27717 20.7446 8.45579 20.6188 8.52868 20.4309L8.0625 20.2501ZM12.4662 10.277C12.566 10.0196 12.4382 9.7299 12.1808 9.63006C11.9233 9.53022 11.6337 9.658 11.5338 9.91546L12.4662 10.277ZM1.04397 5.85896L7.60647 20.4551L8.51853 20.0451L1.95603 5.4489L1.04397 5.85896ZM8.52868 20.4309L12.4662 10.277L11.5338 9.91546L7.59632 20.0693L8.52868 20.4309Z" fill="#212121"></path> <path d="M22.044 5.4489C22.1572 5.19704 22.4532 5.08467 22.705 5.1979C22.9569 5.31114 23.0693 5.60711 22.956 5.85896L22.044 5.4489ZM15.9375 20.2501L16.3935 20.4551C16.3094 20.6421 16.1197 20.7589 15.9149 20.7496C15.71 20.7403 15.5316 20.6069 15.4648 20.413L15.9375 20.2501ZM12.8398 12.7976C12.7498 12.5366 12.8885 12.252 13.1496 12.162C13.4106 12.072 13.6952 12.2107 13.7852 12.4718L12.8398 12.7976ZM22.956 5.85896L16.3935 20.4551L15.4815 20.0451L22.044 5.4489L22.956 5.85896ZM15.4648 20.413L12.8398 12.7976L13.7852 12.4718L16.4102 20.0871L15.4648 20.413Z" fill="#212121"></path> <path d="M8.0625 13.9038L12 3.75L15.9375 13.7055L19.875 5.01923M4.125 5.01923L6.75 11.3654" stroke="#212121" stroke-linecap="round" stroke-linejoin="round"></path> </svg>