<svg width="250" height="113" fill="none" xmlns="http://www.w3.org/2000/svg"><path d="M189.34 24.4l-1.77-1.77.86-.86a.3.3 0 00-.12-.5l-5.14-1.72a.3.3 0 00-.31.08.3.3 0 00-.08.3l1.71 5.15a.3.3 0 00.5.13l.86-.87 1.77 1.77a.3.3 0 00.43 0l1.3-1.28a.3.3 0 000-.43z" fill="white"></path><g opacity=".3"><rect x="81" y="36.8" width="126.75" height="29.98" rx="3.63" fill="#BED1F4"></rect><rect x="81" y="36.8" width="126.75" height="29.98" rx="3.63" fill="url(#paint0_linear)"></rect></g><g opacity=".7"><path d="M190.5 50.19a2.97 2.97 0 010 3.37 2.98 2.98 0 00-.52 1.86v.02a3.05 3.05 0 01-1.74 2.9l-.02.01a3.13 3.13 0 00-1.4 1.36h-.01a3.21 3.21 0 01-3.02 1.69h-.02a3.27 3.27 0 00-1.93.5 3.3 3.3 0 01-3.51 0 3.27 3.27 0 00-1.93-.5h-.03a3.2 3.2 0 01-3.02-1.68v-.01a3.13 3.13 0 00-1.41-1.36h-.01a3.05 3.05 0 01-1.75-2.9v-.03a2.98 2.98 0 00-.52-1.86 2.97 2.97 0 010-3.37 2.98 2.98 0 00.52-1.86v-.02a3.05 3.05 0 011.75-2.91 3.13 3.13 0 001.42-1.36v-.01a3.2 3.2 0 013.02-1.68h.03a3.29 3.29 0 001.93-.5 3.3 3.3 0 013.5 0c.58.36 1.26.54 1.94.5h.02c1.26-.07 2.45.6 3.02 1.68.32.6.81 1.08 1.41 1.37h.02a3.05 3.05 0 011.74 2.9v.03c-.04.66.15 1.31.52 1.86z" fill="#BED1F4"></path><path d="M190.5 50.19a2.97 2.97 0 010 3.37 2.98 2.98 0 00-.52 1.86v.02a3.05 3.05 0 01-1.74 2.9l-.02.01a3.13 3.13 0 00-1.4 1.36h-.01a3.21 3.21 0 01-3.02 1.69h-.02a3.27 3.27 0 00-1.93.5 3.3 3.3 0 01-3.51 0 3.27 3.27 0 00-1.93-.5h-.03a3.2 3.2 0 01-3.02-1.68v-.01a3.13 3.13 0 00-1.41-1.36h-.01a3.05 3.05 0 01-1.75-2.9v-.03a2.98 2.98 0 00-.52-1.86 2.97 2.97 0 010-3.37 2.98 2.98 0 00.52-1.86v-.02a3.05 3.05 0 011.75-2.91 3.13 3.13 0 001.42-1.36v-.01a3.2 3.2 0 013.02-1.68h.03a3.29 3.29 0 001.93-.5 3.3 3.3 0 013.5 0c.58.36 1.26.54 1.94.5h.02c1.26-.07 2.45.6 3.02 1.68.32.6.81 1.08 1.41 1.37h.02a3.05 3.05 0 011.74 2.9v.03c-.04.66.15 1.31.52 1.86z" fill="url(#paint1_linear)"></path><path opacity=".35" d="M177.91 55.71a.37.37 0 01-.32-.18.37.37 0 01.01-.38l4.34-6.95a.37.37 0 11.62.4l-4.34 6.94a.37.37 0 01-.3.17zm.2-3.82c-.9 0-1.62-.83-1.62-1.84s.72-1.85 1.62-1.85c.89 0 1.61.83 1.61 1.85 0 1.01-.72 1.84-1.61 1.84zm0-2.95c-.5 0-.89.5-.89 1.1s.4 1.12.89 1.12c.48 0 .88-.5.88-1.11 0-.62-.4-1.11-.88-1.11zm3.94 6.6c-.89 0-1.61-.82-1.61-1.84s.72-1.85 1.61-1.85c.9 0 1.62.83 1.62 1.85s-.72 1.84-1.62 1.84zm0-2.95c-.48 0-.88.5-.88 1.1 0 .62.4 1.12.88 1.12s.89-.5.89-1.11c0-.61-.4-1.11-.89-1.11z" fill="#3F3D56"></path></g><g opacity=".15"><path d="M182.27 23.61c.54.78.54 1.82 0 2.6a2.3 2.3 0 00-.4 1.42v.02c.06.94-.47 1.82-1.34 2.24a2.4 2.4 0 00-1.1 1.04v.01a2.47 2.47 0 01-2.32 1.3h-.02a2.52 2.52 0 00-1.48.38c-.83.52-1.88.52-2.7 0a2.51 2.51 0 00-1.49-.39h-.01a2.47 2.47 0 01-2.33-1.29 2.4 2.4 0 00-1.08-1.05h-.01a2.35 2.35 0 01-1.35-2.24v-.02a2.3 2.3 0 00-.4-1.42 2.28 2.28 0 010-2.6 2.29 2.29 0 00.4-1.43v-.01a2.35 2.35 0 011.35-2.24 2.41 2.41 0 001.09-1.05 2.47 2.47 0 012.33-1.3h.01a2.52 2.52 0 001.49-.38 2.53 2.53 0 012.7 0c.44.28.96.41 1.48.38h.02c.97-.05 1.88.46 2.32 1.3.25.46.63.82 1.1 1.05a2.35 2.35 0 011.34 2.24v.01c-.03.51.11 1.01.4 1.43z" fill="white"></path><path d="M172.59 27.86a.28.28 0 01-.24-.43l3.34-5.34a.28.28 0 11.48.3l-3.34 5.34a.28.28 0 01-.24.13zm.15-2.94c-.69 0-1.24-.63-1.24-1.42 0-.78.55-1.41 1.24-1.41s1.24.63 1.24 1.41c0 .79-.55 1.42-1.24 1.42zm0-2.27c-.38 0-.68.38-.68.85 0 .48.3.86.68.86.38 0 .68-.38.68-.85 0-.48-.3-.86-.68-.86zm3.04 5.08c-.69 0-1.25-.64-1.25-1.42 0-.78.56-1.42 1.25-1.42.68 0 1.24.64 1.24 1.42 0 .78-.56 1.42-1.24 1.42zm0-2.27c-.38 0-.68.38-.68.85s.3.86.68.86c.37 0 .68-.39.68-.86s-.3-.85-.68-.85z" fill="#5044D0"></path></g><g opacity=".15"><path d="M182.39 78.13a2.29 2.29 0 010 2.6 2.29 2.29 0 00-.4 1.42v.02c.05.93-.48 1.81-1.34 2.23h-.01a2.4 2.4 0 00-1.09 1.05 2.47 2.47 0 01-2.32 1.3h-.02a2.52 2.52 0 00-1.49.39c-.82.52-1.87.52-2.7 0a2.52 2.52 0 00-1.48-.39h-.02a2.47 2.47 0 01-2.32-1.3 2.4 2.4 0 00-1.09-1.04 2.35 2.35 0 01-1.35-2.24v-.02a2.29 2.29 0 00-.4-1.43 2.28 2.28 0 010-2.6 2.29 2.29 0 00.4-1.42v-.02a2.35 2.35 0 011.34-2.23h.01a2.4 2.4 0 001.08-1.05 2.47 2.47 0 012.33-1.3h.02a2.53 2.53 0 001.48-.38 2.53 2.53 0 012.7 0c.45.28.97.4 1.49.38h.02c.97-.05 1.88.46 2.32 1.3.24.45.62.82 1.09 1.04a2.35 2.35 0 011.35 2.24v.02a2.29 2.29 0 00.4 1.43z" fill="white"></path><path d="M172.7 82.38a.28.28 0 01-.23-.43l3.33-5.35a.28.28 0 11.48.3l-3.34 5.35a.28.28 0 01-.24.13zm.15-2.94c-.68 0-1.24-.64-1.24-1.42 0-.78.56-1.42 1.24-1.42.69 0 1.25.64 1.25 1.42 0 .78-.56 1.42-1.25 1.42zm0-2.27c-.37 0-.68.38-.68.85s.3.86.68.86c.38 0 .69-.39.69-.86s-.31-.85-.69-.85zm3.04 5.08c-.68 0-1.24-.64-1.24-1.42s.55-1.42 1.24-1.42 1.25.64 1.25 1.42c0 .78-.56 1.42-1.25 1.42zm0-2.28c-.37 0-.68.39-.68.86s.3.85.68.85c.38 0 .68-.38.68-.85s-.3-.86-.68-.86z" fill="#5044D0"></path></g><rect opacity=".5" x="91.9" y="44.07" width="17.26" height="15.45" rx=".91" fill="white"></rect><rect opacity=".5" x="106.44" y="18.91" width="13.28" height="11.88" rx=".7" fill="white"></rect><rect opacity=".5" x="106.44" y="72.51" width="13.28" height="11.88" rx=".7" fill="white"></rect><rect x="115.98" y="44.07" width="38.62" height="4.54" rx=".91" fill="white"></rect><rect x="124.96" y="18.91" width="29.7" height="3.49" rx=".7" fill="white"></rect><rect x="124.96" y="72.51" width="29.7" height="3.49" rx=".7" fill="white"></rect><rect opacity=".5" x="115.98" y="54.97" width="24.08" height="4.54" rx=".91" fill="white"></rect><rect opacity=".5" x="124.96" y="27.29" width="18.52" height="3.49" rx=".7" fill="white"></rect><rect opacity=".5" x="124.96" y="80.9" width="18.52" height="3.49" rx=".7" fill="white"></rect><path d="M219.97 96.85l-49.63-1.66a3.16 3.16 0 01-3-3.08l-1.57-86.33a2.8 2.8 0 01.83-2.07 2.8 2.8 0 012.08-.8l49.63 1.66a3.16 3.16 0 013 3.07l1.56 86.33a2.79 2.79 0 01-1.78 2.7 2.79 2.79 0 01-1.12.18z" fill="#F2F2F2"></path><path opacity=".8" d="M219.97 96.85l-49.63-1.66a3.16 3.16 0 01-3-3.08l-1.57-86.33a2.8 2.8 0 01.83-2.07 2.8 2.8 0 012.08-.8l49.63 1.66a3.16 3.16 0 013 3.07l1.56 86.33a2.79 2.79 0 01-1.78 2.7 2.79 2.79 0 01-1.12.18z" fill="#F2F2F2"></path><path d="M213.5 1.6l-5.49-.2v.4l5.48.18.01-.39zm-7.39-.25l-2-.07-.02.39 2.01.07.01-.4z" fill="#407BFF"></path><path d="M222.28 91.45l-47.45-1.59a3.02 3.02 0 01-2.9-2.94l-1.48-82.56a2.67 2.67 0 012.8-2.75L220.7 3.2a3.02 3.02 0 012.89 2.94l1.48 82.56a2.67 2.67 0 01-2.79 2.75z" fill="#BED1F4"></path><path d="M222.35 89.56l-47.46-1.6a1.14 1.14 0 01-1.06-1.07l-1.49-82.57a.79.79 0 01.23-.6.79.79 0 01.6-.21l47.46 1.59a1.13 1.13 0 011.05 1.07l1.51 82.57a.77.77 0 01-.5.77.78.78 0 01-.32.05h-.02zM173.17 3.6a.7.7 0 00-.53.2.71.71 0 00-.2.52l1.49 82.57a1.04 1.04 0 00.96.98l47.46 1.59a.68.68 0 00.72-.72L221.6 6.18a1.03 1.03 0 00-.96-.99L173.17 3.6z" fill="white"></path><path opacity=".3" d="M207.57 34.73c5.58-5.36 5.53-14.47-.1-20.35-5.65-5.88-14.75-6.3-20.33-.94-5.58 5.36-5.54 14.47.1 20.35 5.65 5.87 14.74 6.3 20.33.94z" fill="white"></path><path d="M209 24.48a11.19 11.19 0 01-1.31 5.5 10.93 10.93 0 01-10.11 5.76 12.36 12.36 0 01-10.33-6.44 11.99 11.99 0 01-1.5-5.6 10.94 10.94 0 017-10.54 10.94 10.94 0 014.4-.71A12.38 12.38 0 01209 24.48z" fill="white"></path><path d="M207.68 29.98a10.93 10.93 0 01-10.12 5.76 12.36 12.36 0 01-10.33-6.44 17.58 17.58 0 0110.17-2.78 19.12 19.12 0 0110.28 3.46zm-6.71-6.04a5.19 5.19 0 00-.04-7.33 5.19 5.19 0 00-7.33-.34 5.19 5.19 0 00.04 7.33 5.19 5.19 0 007.33.34z" fill="#3F3D56"></path><path d="M216.56 59.15l-37.16-1.24a1.28 1.28 0 01-1.23-1.24l-.1-5.46a1.14 1.14 0 01.34-.84 1.13 1.13 0 01.85-.32l37.15 1.25a1.28 1.28 0 011.23 1.23l.1 5.46a1.12 1.12 0 01-.73 1.09c-.14.06-.3.08-.45.07z" fill="white"></path><path opacity=".3" d="M205.54 47.92l-15.52-.52a1.28 1.28 0 01-1.23-1.25l-.02-1.17a1.12 1.12 0 01.73-1.09c.14-.05.3-.08.45-.07l15.52.52a1.28 1.28 0 011.22 1.24l.03 1.17a1.13 1.13 0 01-.72 1.1 1.13 1.13 0 01-.46.07zm4.53 37.23l-23.25-.78a2.18 2.18 0 01-2.08-2.12l-.04-2.69a1.94 1.94 0 011.24-1.85c.24-.1.5-.14.77-.13l23.24.78a2.18 2.18 0 012.08 2.12l.05 2.69a1.95 1.95 0 01-.58 1.42 1.95 1.95 0 01-1.43.56z" fill="#DEE8F9"></path><path d="M216.8 72.35l-37.17-1.25a1.28 1.28 0 01-1.22-1.24l-.1-5.46a1.14 1.14 0 01.34-.84 1.14 1.14 0 01.84-.32l37.16 1.24a1.28 1.28 0 011.22 1.25l.1 5.45a1.14 1.14 0 01-.72 1.1c-.14.05-.3.07-.45.07z" fill="white"></path><path d="M184.24 54.14a1.26 1.26 0 01-.8 1.2c-.16.07-.33.1-.5.1a1.42 1.42 0 01-1.36-1.39 1.26 1.26 0 01.8-1.2c.16-.07.33-.1.5-.09a1.42 1.42 0 011.36 1.38zm4.1.14c0 .17-.03.34-.09.5a1.26 1.26 0 01-.71.7c-.16.07-.33.1-.5.09a1.41 1.41 0 01-1.36-1.38 1.26 1.26 0 01.8-1.2c.16-.07.34-.1.5-.09a1.41 1.41 0 011.36 1.38zm4.07.14a1.24 1.24 0 01-.37.93 1.25 1.25 0 01-.93.35 1.42 1.42 0 01-1.36-1.37 1.25 1.25 0 01.8-1.2c.16-.07.34-.1.5-.1a1.42 1.42 0 011.36 1.39zm4.1.13a1.25 1.25 0 01-1.3 1.3 1.42 1.42 0 01-1.36-1.39 1.25 1.25 0 011.31-1.28 1.42 1.42 0 011.35 1.37zM184.5 67.33a1.24 1.24 0 01-.37.93 1.24 1.24 0 01-.93.36 1.42 1.42 0 01-1.36-1.38 1.25 1.25 0 01.8-1.2c.17-.07.34-.1.5-.09a1.42 1.42 0 011.36 1.38zm4.09.14a1.25 1.25 0 01-1.3 1.28 1.42 1.42 0 01-1.36-1.37 1.26 1.26 0 01.8-1.21c.16-.06.33-.09.5-.08a1.42 1.42 0 011.36 1.38zm4.09.13a1.26 1.26 0 01-.8 1.2c-.17.07-.34.1-.51.1A1.41 1.41 0 01190 67.5a1.26 1.26 0 01.8-1.2c.16-.06.33-.1.5-.09a1.42 1.42 0 011.36 1.38zm4.08.14a1.24 1.24 0 01-.37.93 1.24 1.24 0 01-.93.36 1.42 1.42 0 01-1.36-1.38 1.26 1.26 0 01.8-1.2c.17-.07.34-.1.5-.09a1.41 1.41 0 011.36 1.38zm4.09.14a1.26 1.26 0 01-.8 1.2c-.16.06-.33.1-.5.09a1.42 1.42 0 01-1.36-1.38 1.25 1.25 0 011.3-1.3 1.42 1.42 0 011.36 1.39zm4.09.13a1.26 1.26 0 01-.8 1.2c-.17.07-.34.1-.51.1a1.42 1.42 0 01-1.35-1.39 1.24 1.24 0 01.37-.93 1.24 1.24 0 01.93-.35 1.42 1.42 0 011.36 1.37z" fill="#3F3D56"></path><path d="M236.7 102.94c-.22.28-.6.33-.95.37-.45.06-.91.07-1.36.02-.54-.08-.86.23-1.35 0-.3-.15-.75.13-1.05 0-.4-.2-1.81-.24-2.06-.62s-.22-.98.17-1.2c.11-.06.23-.1.34-.14.66-.26 1.99-2.23 2.68-2.33.35-.02.7.07 1 .23.68.3 1.9.55 2.2 1.33.23.6.87 1.75.38 2.34zm4.94-.15c.22.27.6.32.96.36.45.06.9.07 1.35.02.54-.08 1.2.39 1.68.15.3-.14.76-.07 1.05-.2.41-.2 2.32.23 2.57-.15s.22-.98-.17-1.2a2.74 2.74 0 00-.34-.14c-.66-.26-2.82-2.64-3.52-2.74a1.85 1.85 0 00-1 .23c-.68.3-1.9.55-2.2 1.32-.23.6-.87 1.76-.38 2.35z" fill="#2F2E41"></path><path d="M243.81 59.92c.22.41.4.84.56 1.28 1.9 5.04 2.07 10.55 2.15 15.94-.01.87.04 1.75.15 2.62.08.55.2 1.1.12 1.66-.07.48-.3.95-.2 1.42.04.21.14.4.18.62.03.23.02.47-.02.7l-.26 1.9c-.14 1.09-.48 2.13-.46 3.22.01.75.03 1.5.1 2.23.1.76.25 1.5.26 2.26 0 .57-.07 1.13-.12 1.7a17.45 17.45 0 00-.05 2.4c.03.6.1 1.25.42 1.77-.36.53-.72 1-1.31 1.25-1.19.52-2.56.35-3.84.16.07-.24.18-.5.08-.73a1.48 1.48 0 00-.22-.3 3.54 3.54 0 01-.58-1.33c-.15-.57-.31-1.18.01-1.73.11-.2.16-.41.14-.64-.27-3.57-1.06-7.27-.33-10.78.08-.37.17-.74.21-1.12.04-.55.05-1.1.02-1.64l-.01-.77c-.04-.81 0-1.64-.17-2.45-.11-.57-.33-1.15-.06-1.74a.96.96 0 00-.04-.84 15.51 15.51 0 01-1.36-3.13 5.46 5.46 0 00-.29-.9 6.27 6.27 0 00-.56-.86c-.64-.93-1.02-2-1.4-3.06.05-.1.02-.23-.09-.22a.4.4 0 00-.24.19c-.51.69-.56 1.6-.58 2.46-.04.8-.03 1.6.04 2.4.04.42.12.83.15 1.25.05.78.04 1.56-.03 2.34l-.27 3.82c-.03.32-.01.64.06.95.17.54.25 1.1.24 1.66a29.82 29.82 0 00.6 6.88c.13.63.27 1.25.38 1.88.26 1.48.3 3 .33 4.5.02.92.03 1.88-.33 2.73a3.14 3.14 0 00-.31.83c0 .15-.02.3-.06.45-.1.27-.43.39-.72.45-.54.12-1.1.16-1.65.12a.98.98 0 01-.37-.08c-.21-.11-.32-.34-.48-.5-.34-.38-.9-.5-1.2-.89-.4-.49-.23-1.2 0-1.79.23-.58.51-1.22.32-1.81-.24-.7-1.06-1.08-1.28-1.78.63-2.85-.93-5.79-.8-8.7.04-.67.16-1.34.16-2.02 0-1.75-.75-3.45-.63-5.2.32-4.42-1.19-8.84-1.83-13.23a8.61 8.61 0 01-.13-2c.1-1.1.6-2.12 1.22-3.03.44-.66.97-1.3 1.7-1.61.6-.25 1.27-.25 1.92-.25 1.62.01 3.25.03 4.87.06 1.1-.02 2.21.08 3.3.3.88.2 1.7.6 2.6.73z" fill="#2F2E41"></path><path d="M217.56 39.73c-.16-.77.14-1.6-.1-2.34-.08-.27-.28-.56-.57-.55-.27.01-.46.28-.7.4-.4.21-.88.03-1.27-.18-.4-.2-.83-.44-1.26-.32-.05.27.13.53.33.71.22.17.4.38.53.62.06.26.09.52.07.79.04.6.43 1.13.82 1.6a28.95 28.95 0 001.98 2.2s1.05-1.3 1.03-1.54c-.02-.21-.37-.41-.5-.59-.18-.24-.3-.5-.36-.8zm31.5 16.13c.1.24.17.5.21.75a52.4 52.4 0 01.72 5.08 4.93 4.93 0 01-.5 2.48 3.46 3.46 0 01-1.86 1.67c-.25.08-.6.1-.7-.14a.5.5 0 010-.34c.1-.36.3-.68.42-1.02a2.76 2.76 0 00.1-1.62c-.06-.2-.16-.44-.37-.48.1.48.02.97-.24 1.38a.49.49 0 01-.29.24.38.38 0 01-.4-.26 1.08 1.08 0 01-.03-.5c.07-.87.2-1.72.4-2.56.23-.92.6-1.83.57-2.78-.02-.86-.36-1.7-.27-2.56a.26.26 0 01.05-.15.28.28 0 01.1-.07c.25-.1.5-.18.75-.24.15-.04.66-.22.8-.14.11.07.15.45.2.58.1.23.25.44.34.68zm-16.99-25.51a3.52 3.52 0 100-7.03 3.52 3.52 0 000 7.03z" fill="#F1BE8F"></path><path d="M235.22 29.38c0 .22.02.44.05.67.05.22.12.44.2.65.13.34.3.67.5.97.21.3.53.5.9.58a25.32 25.32 0 01-7.61 2.2c.41-.28.76-.65 1-1.08.14-.28.23-.58.28-.88a7.37 7.37 0 00-.33-3.8c-.05-.11-.1-.26 0-.35a.34.34 0 01.12-.09 7.84 7.84 0 013.3-.61c.3 0 .58.01.87.03.15.01.5-.02.62.1.15.13.08.55.08.74l.02.87z" fill="#F1BE8F"></path><path d="M237.08 31.93a3.76 3.76 0 00-4.5-1.12c-1.67.8-2.5 2.72-3.97 3.85a6.92 6.92 0 01-1.06.66 2.95 2.95 0 01-.7.27c-.28.06-.57.05-.84.12a2.15 2.15 0 00-1.25.97c-.13.24-.29.48-.45.7-.16.19-.35.33-.51.5-.59.64-.75 1.54-.88 2.39-.46.48-.96.92-1.5 1.31a2.13 2.13 0 01-.55.31c-.51.17-1.08-.04-1.52-.36-.44-.32-.8-.73-1.23-1.06a46.4 46.4 0 01-1.23 1.69.55.55 0 01-.28.22c-.08.27.11.55.25.79l.77 1.29c.25.47.56.9.93 1.3.36.39.86.63 1.4.68.34 0 .67-.07.99-.2 1.46-.48 2.8-1.27 4.19-1.94.25-.14.53-.22.82-.24a.66.66 0 01.65.47c.16.8.32 1.6.54 2.4.2.74.4 1.5.58 2.25.12.46.2.93.25 1.4l.03.8.03 3.27c0 .35-.2.57-.35.88a2.09 2.09 0 00-.1 1.57c.08.25.22.49.32.74.23.6.22 1.27.2 1.92l-.02 1.5a.32.32 0 00.03.17c.09.14.3.06.45-.04l.7-.48a15.87 15.87 0 002.8.14 95.4 95.4 0 018 .25c.9.06 1.81.13 2.65-.17.43-.15.82-.39 1.26-.5a1.15 1.15 0 00.5-.21c.24-.23.17-.62.07-.94-.08-.28-.18-.55-.3-.82a4.86 4.86 0 01-.27-.77c-.13-.59 0-1.28-.37-1.76-.83-1.08-.24-2.74-.6-4.06-.1-.43-.27-.84-.38-1.26-.06-.27-.1-.55-.14-.82a9.7 9.7 0 01-.17-1.8c.01-.3.05-.6.09-.9l.26-2.06c.33.6.56 1.27.68 1.96.24 1.02.53 2.03.88 3.02l.61 1.79c.14.34.24.68.31 1.04.05.29.05.58.08.87.08.62.3 1.22.64 1.74.06.12.17.21.3.26a.59.59 0 00.25-.01 10.26 10.26 0 002.67-.92c.18-.08.34-.2.45-.36.23-.37-.02-.83-.13-1.25-.12-.44-.1-.98-.45-1.29-1.23-1.04-.62-3.17-1.23-4.67-.11-.26-.24-.51-.33-.78a156.64 156.64 0 00-1.56-5.83c-.5-1.78-.45-3.65-1.1-5.4a5.71 5.71 0 00-.46-1.05 2.87 2.87 0 00-.85-.87 8.42 8.42 0 00-2.96-1.36c-1.1-.23-2.27-.2-3.39-.19z" fill="#F8D458"></path><path d="M228.88 27.7c-.48-.26-.35-.95-.43-1.48-.17-1.1-1.4-1.74-1.7-2.8.34.03.68-.02.99-.15.06-.35-.01-.72-.2-1.02 1.02-.41 1.84-1.22 2.87-1.6 1.3-.46 2.74-.17 4.04.26.66.22 1.34.5 1.73 1.06.43.62.43 1.43.4 2.19a8.29 8.29 0 01-.6 3.47c-.68 1.35-2.58 2.6-4.15 2.23-.65-.15-.84-.56-1.12-1.13-.17-.35-.23-.76-.62-.94-.37-.18-.83.11-1.21-.1z" fill="#2F2E41"></path><path d="M32.44 27.33L0 16.47l23.98 16.64 8.46-5.78zM50.7 69.4L41 85.1l14.9-11.8-5.22-3.9z" fill="white" fill-opacity=".3"></path><defs><linearGradient id="paint0_linear" x1="-23.94" y1="54.52" x2="197.75" y2="55.88" gradientUnits="userSpaceOnUse"><stop stop-color="white"></stop><stop offset="1" stop-color="#BED1F4"></stop></linearGradient><linearGradient id="paint1_linear" x1="154.82" y1="54.29" x2="209.43" y2="58" gradientUnits="userSpaceOnUse"><stop stop-color="white"></stop><stop offset="1" stop-color="#BED1F4"></stop></linearGradient></defs></svg>