<svg xmlns="http://www.w3.org/2000/svg" width="18" height="20" viewBox="0 0 18 18"><path fill="#EE2A24" fill-rule="evenodd" d="M17.215.785A2.663 2.663 0 0015.32 0a2.66 2.66 0 00-1.896.785l-11.49 11.49a.447.447 0 00-.104.165L.027 17.396a.45.45 0 00.578.577l4.956-1.802a.46.46 0 00.165-.105l11.49-11.49c.506-.506.784-1.18.784-1.896s-.278-1.39-.785-1.896zM5.16 15.359l-3.955 1.438 1.438-3.955 9.974-9.974 2.517 2.517-9.974 9.974zm11.418-11.42l-.807.807-2.517-2.517.807-.807c.336-.336.783-.52 1.258-.52s.922.184 1.258.52c.336.336.521.783.521 1.258s-.185.922-.52 1.258v.001z"></path></svg>