<svg xmlns="http://www.w3.org/2000/svg" width="20" height="17" viewBox="0 0 20 17"> <g fill="none" fill-rule="evenodd"> <path d="M-2-4h24v24H-2z"></path> <path fill="black" fill-rule="nonzero" d="M9.943 0c-1.9 0-3.55.237-3.82 1.818H3.181C1.41 1.818 0 3.345 0 5.192v7.791c0 1.846 1.41 3.38 3.182 3.38h13.636c1.772 0 3.182-1.534 3.182-3.38V5.192c0-1.847-1.41-3.374-3.182-3.374h-3.054C13.494.237 11.844 0 9.944 0zM10 .911c1.385 0 2.47-.093 2.727.907H7.273C7.53.818 8.615.911 10 .911zM3.182 2.727h13.636c1.25 0 2.273 1.004 2.273 2.306v.996c-1.926 1.136-4.512 1.925-7.415 2.153-.23-.694-.919-1.203-1.733-1.203-.814 0-1.503.509-1.733 1.203-2.846-.224-5.387-.986-7.3-2.086V5.033c0-1.302 1.022-2.306 2.272-2.306zM19.09 7.19v5.781c0 1.398-1.023 2.485-2.273 2.485H3.182c-1.25 0-2.273-1.087-2.273-2.485V7.273c1.996 1.125 4.442 1.734 7.205 1.962l.073.287a1.83 1.83 0 0 0 1.756 1.363 1.83 1.83 0 0 0 1.745-1.322c.012-.04.077-.288.086-.328 2.815-.232 5.304-.887 7.317-2.046zM10 8c.558 0 1 .442 1 1s-.442 1-1 1-1-.442-1-1 .442-1 1-1z" opacity=".7"></path> </g> </svg>