<svg xmlns="http://www.w3.org/2000/svg" width="78" height="20" viewBox="0 0 78 20"> <g fill="none" fill-rule="evenodd"> <path fill="black" d="M2 0h74a2 2 0 0 1 2 2v16a2 2 0 0 1-2 2H2a2 2 0 0 1-2-2V2a2 2 0 0 1 2-2z"></path> <path fill="white" stroke="white" stroke-width=".5" d="M14.385 7.734h-1.769v4.312h-.84V7.734H10v-.699h4.385v.699zm3.931 4.347c-.374 0-.715-.071-1.023-.215a2.537 2.537 0 0 1-1.308-1.387 2.55 2.55 0 0 1-.18-.938c0-.334.064-.654.192-.96.127-.306.303-.576.528-.812.225-.235.492-.422.802-.56.31-.14.647-.209 1.012-.209.375 0 .716.074 1.023.222a2.58 2.58 0 0 1 1.3 1.398 2.505 2.505 0 0 1-.01 1.888 2.564 2.564 0 0 1-1.327 1.366 2.42 2.42 0 0 1-1.009.207zm-1.656-2.54c0 .235.039.463.116.684.078.221.189.417.334.586.145.17.32.305.524.406.205.101.435.152.69.152.26 0 .493-.053.7-.16.208-.105.383-.245.526-.42.142-.173.25-.368.326-.585a2.014 2.014 0 0 0-.008-1.351 1.835 1.835 0 0 0-.337-.58 1.658 1.658 0 0 0-.525-.401 1.52 1.52 0 0 0-.682-.152c-.26 0-.493.053-.7.159a1.666 1.666 0 0 0-.526.413c-.142.169-.25.363-.326.582a2.045 2.045 0 0 0-.112.667zm7.972-2.485h.787l1.994 4.073 1.656-4.094h.915l-2.19 5.011h-.726l-.99-2.244-.997 2.244h-.72l-2.188-5.01h.907l1.672 4.093.787-1.842-.907-2.23zm8.039 1.461v3.53h-.84V7.034h.66l3.043 3.614V7.042h.847v5.004h-.697l-3.013-3.529zm10.497-1.482v5.011h-.847V9.837h-2.683v2.21h-.84V7.034h.84v2.096h2.683V7.035h.847zm4.607 5.046c-.375 0-.716-.071-1.024-.215a2.537 2.537 0 0 1-1.308-1.387 2.55 2.55 0 0 1-.18-.938c0-.334.064-.654.192-.96.127-.306.303-.576.528-.812.225-.235.492-.422.802-.56.31-.14.647-.209 1.012-.209.375 0 .716.074 1.023.222a2.58 2.58 0 0 1 1.3 1.398 2.505 2.505 0 0 1-.01 1.888 2.564 2.564 0 0 1-1.327 1.366 2.42 2.42 0 0 1-1.008.207zm-1.657-2.54c0 .235.039.463.116.684.078.221.189.417.334.586.145.17.32.305.524.406.205.101.435.152.69.152.26 0 .494-.053.7-.16.208-.105.383-.245.526-.42.142-.173.25-.368.326-.585a2.014 2.014 0 0 0-.008-1.351 1.835 1.835 0 0 0-.337-.58 1.658 1.658 0 0 0-.525-.401 1.52 1.52 0 0 0-.682-.152c-.26 0-.493.053-.7.159a1.666 1.666 0 0 0-.525.413c-.143.169-.252.363-.327.582a2.045 2.045 0 0 0-.112.667zm8.489 1.828c.28 0 .512-.052.697-.156.185-.103.334-.238.446-.405.112-.168.192-.358.24-.572.047-.214.071-.434.071-.66v-2.54h.847v2.54c0 .343-.042.667-.127.97-.085.304-.22.57-.405.798a1.917 1.917 0 0 1-.716.54c-.292.132-.643.197-1.053.197-.425 0-.783-.069-1.076-.208a1.914 1.914 0 0 1-.708-.557c-.18-.233-.31-.5-.39-.801a3.642 3.642 0 0 1-.12-.939v-2.54h.84v2.54c0 .23.024.453.071.667.047.214.127.405.24.572.112.167.262.3.45.402.187.101.418.152.693.152zm7.784-3.155a1.14 1.14 0 0 0-.217-.166 2.224 2.224 0 0 0-.334-.166 2.515 2.515 0 0 0-.918-.176c-.33 0-.58.06-.75.183a.598.598 0 0 0-.254.515c0 .123.027.223.082.3a.67.67 0 0 0 .247.202c.11.056.248.107.413.151.165.045.357.093.577.145.26.066.498.134.716.205.217.07.402.158.554.264.153.106.271.237.356.392.085.155.128.348.128.579 0 .263-.053.487-.158.67a1.292 1.292 0 0 1-.423.448c-.177.116-.384.2-.618.254a3.332 3.332 0 0 1-.75.082 4.03 4.03 0 0 1-1.177-.173 3.43 3.43 0 0 1-1.027-.505l.39-.678c.065.062.157.13.277.205.12.075.261.145.424.208.162.064.34.118.536.163.195.044.397.067.607.067.32 0 .568-.056.746-.166a.535.535 0 0 0 .266-.484.506.506 0 0 0-.098-.317.818.818 0 0 0-.284-.222 2.445 2.445 0 0 0-.458-.17c-.18-.05-.384-.102-.614-.159a6.655 6.655 0 0 1-.694-.208 1.764 1.764 0 0 1-.49-.265 1.049 1.049 0 0 1-.297-.363 1.146 1.146 0 0 1-.1-.505c0-.244.048-.462.145-.652.098-.191.233-.35.405-.48a1.83 1.83 0 0 1 .611-.293c.235-.066.487-.099.757-.099.37 0 .706.054 1.008.162.303.109.569.243.798.403l-.382.649zm6.315 3.133v.7h-3.65V7.034h3.583v.699h-2.744V9.16h2.377v.656h-2.377v1.531h2.811z"></path> </g> </svg>